<?xml version="1.0" standalone="no"?>
<!DOCTYPE svg PUBLIC "-//W3C//DTD SVG 20010904//EN"
        "http://www.w3.org/TR/2001/REC-SVG-20010904/DTD/svg10.dtd">
<svg version="1.0" xmlns="http://www.w3.org/2000/svg"
     width="300.000000pt" height="300.000000pt" viewBox="0 0 300.000000 300.000000"
     preserveAspectRatio="xMidYMid meet">
    <metadata>
        Created by potrace 1.14, written by Peter Selinger 2001-2017
    </metadata>
    <g transform="translate(0.000000,300.000000) scale(0.100000,-0.100000)"
       fill="#000000" stroke="none">
        <path d="M1395 2994 c-224 -26 -373 -64 -523 -134 -706 -331 -1044 -1137 -782
-1867 149 -417 486 -754 903 -903 474 -170 1001 -91 1407 212 138 103 295 276
382 423 163 274 237 594 208 902 -34 369 -174 669 -434 929 -210 210 -426 331
-711 399 -143 35 -339 51 -450 39z m410 -976 l300 -173 5 -355 c3 -195 2 -362
-2 -370 -3 -9 -125 -84 -270 -167 -366 -211 -342 -199 -375 -182 -106 54 -580
333 -590 346 -10 13 -13 102 -13 364 l0 348 33 24 c54 41 579 337 596 337 9 0
152 -78 316 -172z"/>
        <path d="M1223 1947 c-117 -68 -215 -126 -219 -129 -6 -7 177 -118 194 -118 5
0 64 32 131 71 l121 71 0 114 c0 63 -3 114 -7 114 -5 0 -104 -55 -220 -123z"/>
        <path d="M1530 1957 l0 -115 113 -66 c61 -36 119 -68 128 -71 15 -6 192 85
204 105 4 7 -384 239 -428 256 -15 6 -17 -4 -17 -109z"/>
        <path d="M1382 1704 c-52 -31 -92 -57 -90 -59 2 -2 47 -29 101 -60 l98 -56 99
57 c54 32 97 61 95 65 -8 11 -184 109 -197 109 -7 -1 -55 -26 -106 -56z"/>
        <path d="M950 1480 l0 -261 23 12 c12 7 59 34 105 61 l82 49 0 138 0 139 -72
42 c-40 24 -88 51 -105 62 l-33 20 0 -262z"/>
        <path d="M1918 1674 l-98 -56 0 -143 0 -143 98 -56 c54 -31 101 -56 105 -56 4
0 7 115 7 255 0 140 -3 255 -7 255 -5 -1 -52 -26 -105 -56z"/>
        <path d="M1240 1446 l0 -114 99 -56 c54 -31 102 -56 105 -56 4 0 5 52 4 116
l-3 116 -93 54 c-52 30 -98 54 -103 54 -5 0 -9 -51 -9 -114z"/>
        <path d="M1625 1507 l-90 -53 -3 -117 c-1 -64 0 -117 4 -117 3 0 48 25 100 55
l94 56 0 114 c0 63 -3 115 -7 115 -5 0 -48 -24 -98 -53z"/>
        <path d="M1098 1202 c-54 -31 -98 -59 -98 -62 0 -4 419 -250 442 -258 5 -2 7
49 6 114 l-3 118 -123 73 c-68 40 -124 73 -125 72 -1 0 -46 -26 -99 -57z"/>
        <path d="M1659 1187 l-124 -72 -3 -119 c-1 -67 1 -116 6 -114 22 8 442 254
442 258 0 3 -21 17 -48 32 -26 15 -70 41 -98 57 l-51 30 -124 -72z"/>
    </g>
</svg>
